<?xml version="1.0" ?><svg data-name="Layer 1" height="200" id="Layer_1" viewBox="0 0 200 200" width="200" xmlns="http://www.w3.org/2000/svg"><title/><path d="M64.5,107l21,21a19.92,19.92,0,0,0,28.5,0l21-21a9.9,9.9,0,0,0-14-14l-11,11V32.5a10,10,0,0,0-20,0V104L79,93a9.67,9.67,0,0,0-14,0,9.29,9.29,0,0,0-.5,14ZM155,52.5h-7.5a10,10,0,0,0,0,20H155a10,10,0,0,1,10,10v55a20.06,20.06,0,0,1-20,20H55a20.06,20.06,0,0,1-20-20v-55a10,10,0,0,1,10-10h7.5a10,10,0,0,0,0-20H45a30.09,30.09,0,0,0-30,30v55a40.12,40.12,0,0,0,40,40h90a40.12,40.12,0,0,0,40-40v-55A30.09,30.09,0,0,0,155,52.5Z"/></svg>